<?xml version="1.0" encoding="utf-8"?>
<!-- Generator: Adobe Illustrator 15.0.0, SVG Export Plug-In . SVG Version: 6.00 Build 0)  -->
<!DOCTYPE svg PUBLIC "-//W3C//DTD SVG 1.0//EN" "http://www.w3.org/TR/2001/REC-SVG-20010904/DTD/svg10.dtd">
<svg version="1.0" id="Layer_1" xmlns="http://www.w3.org/2000/svg" xmlns:xlink="http://www.w3.org/1999/xlink" x="0px" y="0px"
	 width="259px" height="29px" viewBox="0 0 259 29" enable-background="new 0 0 259 29" xml:space="preserve">
<g>
	<path fill="#FFFFFF" d="M4.536,23.405V6.851H0V5.078c2.493-0.061,4.837-1.232,4.957-3.996H6.67v22.323H4.536z"/>
	<path fill="#FFFFFF" d="M26.736,18.598c-3.185,8.593-13.49,6.249-14.211-0.721h2.224c0.871,5.317,7.631,5.889,9.794,0.42
		c0.842-2.133,0.812-4.477,0.781-5.558c-3.936,6.129-13.069,2.824-12.889-4.627c0.21-8.653,12.018-9.795,14.661-1.772
		C27.938,8.924,28.028,15.082,26.736,18.598z M14.658,8.232c0,7.481,10.365,7.481,10.365,0C25.023,1.082,14.658,1.142,14.658,8.232z
		"/>
	<path fill="#FFFFFF" d="M49.325,19.92v-6.1c-1.021,0.541-2.554,1.082-4.116,1.082H30.788V1.622h2.073V13.1h12.348
		c1.713,0,3.065-0.33,4.116-0.721V9.824h-7.661V8.202h7.661V5.258h-7.691V3.636h7.691V0.24h2.134v19.68H49.325z M34.514,27.19
		v-8.563h2.103v6.88h15.413v1.683H34.514z"/>
	<path fill="#FFFFFF" d="M70.411,20.881c-2.674-1.442-6.069-4.056-7.451-9.043c-1.352,4.957-4.657,7.751-7.361,9.104l-1.142-1.503
		c5.528-2.884,7.151-7.661,7.392-12.919h-5.859V4.837h5.919V0.48h2.104v4.356h6.43V6.52h-6.34
		c0.271,5.258,1.863,10.005,7.361,12.919L70.411,20.881z M77.291,12.138V27.19h-2.133V0.24h2.133v10.186h4.297v1.712H77.291z"/>
	<path fill="#FFFFFF" d="M108.679,15.413v1.713c3.425,0.57,5.588,2.733,5.588,5.468c0,3.215-2.944,5.588-7.421,5.588
		c-4.446,0-7.391-2.373-7.391-5.588c0-2.734,2.133-4.897,5.559-5.468v-1.713h-9.614v-2.914h22.804v2.914H108.679z M116.791,11.236
		c-3.846-0.42-8.022-1.562-9.915-4.176c-1.953,2.644-6.129,3.815-10.035,4.236L95.85,8.773c4.206-0.781,7.781-1.772,8.803-4.987
		h-7.541V0.842h19.529v2.944H109.1c1.021,3.215,4.597,4.206,8.803,4.987L116.791,11.236z M106.846,19.92
		c-2.313,0-3.755,1.021-3.755,2.674s1.441,2.644,3.755,2.644s3.786-0.991,3.786-2.644S108.889,19.92,106.846,19.92z"/>
	<path fill="#FFFFFF" d="M120.601,23.585v-2.944h7.932v-9.824h3.665v9.824h11.537v2.944H120.601z M141.602,10.906
		c0,2.163-0.661,4.987-1.532,6.851h-3.095c0.48-1.983,0.871-4.447,0.871-6.851V4.627h-15.202V1.683h18.958V10.906z"/>
	<path fill="#FFFFFF" d="M161.064,16.675c-2.854-0.901-5.648-3.516-7.15-6.67c-1.532,3.154-4.387,5.769-7.181,6.64l-1.502-2.373
		c5.828-2.854,6.76-8.773,6.76-13.25h3.815c-0.03,4.477,1.052,10.485,6.851,13.25L161.064,16.675z M151.12,27.431v-9.765h3.726
		v6.881h14.691v2.884H151.12z M165.211,20.34V8.924h-5.738V6.009h5.738V0h3.756v20.34H165.211z"/>
	<path fill="#FFFFFF" d="M173.166,14.481V0.932h3.695v4.267h6.249V0.932h3.726v13.55H173.166z M190.802,27.4v-7.21h-14.12v-2.915
		h17.846V27.4H190.802z M183.11,8.112h-6.249v3.455h6.249V8.112z M194.588,10.275v5.979h-3.726V0h3.726v7.331h4.056v2.944H194.588z"
		/>
	<path fill="#FFFFFF" d="M224.592,17.065v9.824h-2.043v-9.824h-10.095v-1.683h22.443v1.683H224.592z M233.335,11.928
		c-4.327-0.961-7.932-3.575-9.734-7.03c-1.652,3.335-5.229,5.949-9.645,6.971l-0.842-1.623c5.018-1.412,9.014-4.656,9.404-9.765
		h2.163c0.421,5.258,4.267,8.413,9.435,9.765L233.335,11.928z"/>
	<path fill="#FFFFFF" d="M251.265,7.481c0,3.575-3.095,6.43-6.97,6.43c-3.876,0-7.001-2.854-7.001-6.43s3.125-6.46,7.001-6.46
		C248.17,1.021,251.265,3.906,251.265,7.481z M244.295,2.914c-2.614,0-4.777,2.014-4.777,4.567c0,2.523,2.163,4.507,4.777,4.507
		c2.644,0,4.776-1.983,4.776-4.507C249.071,4.928,246.938,2.914,244.295,2.914z M241.951,27.16V16.825h2.104v3.215h12.738v-3.215
		h2.073V27.16H241.951z M256.793,21.752h-12.738v3.756h12.738V21.752z M258.956,14.813h-2.133V0.24h2.133V14.813z"/>
</g>
</svg>
