<?xml version="1.0" encoding="utf-8"?>
<!-- Generator: Adobe Illustrator 15.0.0, SVG Export Plug-In . SVG Version: 6.00 Build 0)  -->
<!DOCTYPE svg PUBLIC "-//W3C//DTD SVG 1.0//EN" "http://www.w3.org/TR/2001/REC-SVG-20010904/DTD/svg10.dtd">
<svg version="1.0" id="Layer_1" xmlns="http://www.w3.org/2000/svg" xmlns:xlink="http://www.w3.org/1999/xlink" x="0px" y="0px"
	 width="365px" height="28px" viewBox="0 0 365 28" enable-background="new 0 0 365 28" xml:space="preserve">
<g>
	<path fill="#FFFFFF" d="M2.463,27.19v-6.129h15.323v-2.854H2.463v-1.713h7.632v-2.733H0v-1.713h22.143v1.713H12.138v2.733h7.751
		v6.279H4.566v2.765h15.954v1.652H2.463z M2.133,9.313V0.781h2.133v2.374h13.791V0.781h2.163v8.532H2.133z M18.057,4.808H4.266
		v2.854h13.791V4.808z"/>
	<path fill="#FFFFFF" d="M25.141,13.25V1.172h2.073v4.417h8.382V1.172h2.073v5.077h6.64V0.24h2.104v14.542h-2.104v-6.79h-6.64v5.258
		H25.141z M35.596,7.301h-8.382v4.236h8.382V7.301z M29.467,27.16V16.825h2.104v3.215h12.738v-3.215h2.073V27.16H29.467z
		 M44.309,21.752H31.57v3.756h12.738V21.752z"/>
	<path fill="#FFFFFF" d="M71.823,12.138V27.16h-2.103v-7.842c-2.283,0.752-4.146,1.263-6.159,1.263H49.711v-1.743h4.897v-8.172
		h2.073v8.172h6.88c2.344,0,4.296-0.391,6.159-0.932V0.24h2.103v10.186h4.267v1.712H71.823z M64.733,8.473
		c0,2.043-0.661,5.318-1.262,7.03h-1.563c0.36-1.742,0.751-4.566,0.751-7.03V3.846H51.544V2.104h13.189V8.473z"/>
	<path fill="#FFFFFF" d="M92.639,14.872c-2.555-0.812-5.829-3.695-7.061-7.15c-1.232,3.455-4.537,6.339-7.091,7.181
		c-0.33-0.511-0.901-0.991-1.202-1.412c5.138-2.464,6.91-6.73,7.181-10.245h-6.339V1.502h14.661v1.743h-6.099
		c0.271,3.485,2.133,7.812,7.181,10.245L92.639,14.872z M98.106,27.16V20.1H83.265v-1.712h16.944v8.772H98.106z M98.137,15.983
		V8.683h-6.039V6.94h6.039v-6.7h2.103v15.743H98.137z"/>
	<path fill="#FFFFFF" d="M125.832,10.576v9.764h-3.726v-6.219c-1.201,0.601-2.884,0.932-4.597,0.932H104.44v-13.7h13.641v3.004
		h-9.945v7.722h9.374c1.803,0,3.125-0.15,4.597-0.781V0h3.726v7.632h4.056v2.944H125.832z M107.956,27.431v-9.765h3.755v6.881
		h14.662v2.884H107.956z"/>
	<path fill="#FFFFFF" d="M131.685,16.164V13.25h9.704V9.193h3.665v4.057h9.435v2.914H131.685z M153.256,11.537
		c-3.905-0.511-8.082-2.464-10.005-5.378c-1.862,2.914-6.159,4.897-9.944,5.348l-1.172-2.583c4.717-0.872,9.164-3.636,9.254-8.593
		h3.726c0.09,5.017,4.566,7.721,9.313,8.593L153.256,11.537z M148.6,27.4v-6.099h-14.572v-2.914h18.327V27.4H148.6z"/>
	<path fill="#FFFFFF" d="M178.697,12.138V27.16h-2.103v-7.842c-2.283,0.752-4.146,1.263-6.159,1.263h-13.851v-1.743h4.897v-8.172
		h2.073v8.172h6.88c2.344,0,4.296-0.391,6.159-0.932V0.24h2.103v10.186h4.267v1.712H178.697z M171.607,8.473
		c0,2.043-0.661,5.318-1.262,7.03h-1.563c0.36-1.742,0.751-4.566,0.751-7.03V3.846h-11.116V2.104h13.189V8.473z"/>
	<path fill="#FFFFFF" d="M211.017,8.143c0,4.086-3.065,7.061-6.971,7.061c-3.846,0-6.971-2.975-6.971-7.061
		c0-4.087,3.125-7.031,6.971-7.031C207.951,1.111,211.017,4.056,211.017,8.143z M204.046,3.095c-2.614,0-4.747,2.073-4.747,5.048
		c0,3.004,2.133,5.047,4.747,5.047c2.644,0,4.807-2.043,4.807-5.047C208.853,5.168,206.689,3.095,204.046,3.095z M201.432,27.19
		v-8.803h2.134v7.12h15.412v1.683H201.432z M218.407,9.854V19.89h-2.133V0.24h2.133v7.872h4.267v1.742H218.407z"/>
	<path fill="#FFFFFF" d="M239.222,15.924c-2.555-0.812-5.829-4.297-7.061-7.752c-1.232,3.455-4.537,6.94-7.091,7.782
		c-0.33-0.511-0.901-0.992-1.202-1.412c5.138-2.464,6.91-7.632,7.181-11.146h-6.339V1.652h14.661v1.743h-6.099
		c0.271,3.484,2.133,8.713,7.181,11.146L239.222,15.924z M229.877,27.19v-8.773h2.134v7.091h15.383v1.683H229.877z M244.689,19.89
		V9.104h-6.039V7.361h6.039V0.24h2.133V19.89H244.689z"/>
	<path fill="#FFFFFF" d="M265.625,16.735c-2.884-0.872-5.468-3.215-7.12-6.279c-1.653,3.064-4.356,5.438-7.181,6.309l-1.503-2.343
		c4.928-2.374,6.37-6.43,6.7-10.065h-5.979V1.353h15.683v3.004h-5.769c0.331,3.636,1.803,7.691,6.79,10.065L265.625,16.735z
		 M255.109,27.431v-9.765h3.726v6.881h14.691v2.884H255.109z M269.23,20.34V0h3.756v20.34H269.23z"/>
	<path fill="#FFFFFF" d="M298.577,10.576v9.764h-3.726v-6.219c-1.202,0.601-2.884,0.932-4.597,0.932h-13.069v-13.7h13.641v3.004
		h-9.945v7.722h9.374c1.803,0,3.125-0.15,4.597-0.781V0h3.726v7.632h4.056v2.944H298.577z M280.701,27.431v-9.765h3.755v6.881
		h14.662v2.884H280.701z"/>
	<path fill="#FFFFFF" d="M317.045,19.499V1.833h13.49v17.666H317.045z M326.81,4.717h-6.039v11.928h6.039V4.717z M335.042,27.431V0
		h3.725v27.431H335.042z"/>
	<path fill="#FFFFFF" d="M342.967,19.499V1.532h3.726v6.43h6.009v-6.43h3.756v17.967H342.967z M352.701,10.876h-6.009v5.769h6.009
		V10.876z M360.964,27.431V0h3.725v27.431H360.964z"/>
</g>
</svg>
