<?xml version="1.0" encoding="utf-8"?>
<!-- Generator: Adobe Illustrator 15.0.0, SVG Export Plug-In . SVG Version: 6.00 Build 0)  -->
<!DOCTYPE svg PUBLIC "-//W3C//DTD SVG 1.0//EN" "http://www.w3.org/TR/2001/REC-SVG-20010904/DTD/svg10.dtd">
<svg version="1.0" id="Layer_1" xmlns="http://www.w3.org/2000/svg" xmlns:xlink="http://www.w3.org/1999/xlink" x="0px" y="0px"
	 width="322px" height="28px" viewBox="0 0 322 28" enable-background="new 0 0 322 28" xml:space="preserve">
<g>
	<path fill="#FFFFFF" d="M15.354,15.623c-2.555-0.811-5.829-3.996-7.061-7.451c-1.232,3.455-4.537,6.641-7.091,7.481
		C0.872,15.143,0.301,14.662,0,14.241C5.138,11.777,6.91,6.91,7.181,3.396H0.842V1.652h14.661v1.743H9.404
		c0.271,3.484,2.133,8.412,7.181,10.846L15.354,15.623z M5.709,27.19v-8.773h2.103v7.091h15.413v1.683H5.709z M22.684,19.89h-2.133
		V0.24h2.133V19.89z"/>
	<path fill="#FFFFFF" d="M26.284,23.255v-1.713h10.125v-7.661h-8.082V1.322h18.177v1.772H30.46v9.043h16.044v1.743h-8.052v7.661
		h10.275v1.713H26.284z"/>
	<path fill="#FFFFFF" d="M73.595,6.91c1.442,1.563,2.523,3.815,2.523,6.189c0,4.236-2.463,7.661-5.798,7.661
		s-5.769-3.425-5.769-7.661c0-2.403,0.931-4.627,2.434-6.189h-3.546V5.198h5.859V0.541h1.982v4.657h5.769V6.91H73.595z M70.32,7.091
		c-2.073,0-3.786,2.674-3.786,6.009c0,3.365,1.502,5.979,3.786,5.979c2.283,0,3.815-2.613,3.815-5.979
		C74.136,9.765,72.393,7.091,70.32,7.091z M85.823,27.19V12.138h-4.207V27.19h-2.103V0.24h2.103v10.186h4.207V0.24h2.043v26.95
		H85.823z"/>
	<path fill="#FFFFFF" d="M104.685,4.177h6.88V0.24h2.133v15.443h-2.133v-3.996h-7.121v-0.03c-1.231,1.713-3.305,2.794-5.708,2.794
		c-3.936,0-6.971-2.974-6.971-6.729s3.035-6.7,6.971-6.7C101.319,1.021,103.513,2.283,104.685,4.177z M98.735,2.854
		c-2.734,0-4.747,2.133-4.747,4.867c0,2.704,2.013,4.867,4.747,4.867c2.794,0,4.807-2.163,4.807-4.867
		C103.542,4.987,101.529,2.854,98.735,2.854z M111.534,27.16v-7.451H96.723v-1.712h16.944v9.163H111.534z M105.436,5.799
		c0.18,0.601,0.271,1.262,0.271,1.923c0,0.812-0.15,1.622-0.421,2.344h6.279V5.799H105.436z"/>
	<path fill="#FFFFFF" d="M143.883,15.143c-2.523-0.871-5.258-3.215-7.061-6.82c-1.803,3.636-4.446,5.799-7.03,6.79L128.71,13.7
		c4.838-2.343,6.82-6.009,7.061-9.043h-6.369V2.944h6.399V0h2.104v2.944h6.489v1.713h-6.43c0.271,3.064,2.224,6.729,7.03,9.043
		L143.883,15.143z M134.269,27.16v-9.133h16.915v9.133H134.269z M149.051,19.709h-12.679v5.799h12.679V19.709z M151.244,15.684
		h-2.134V0.24h2.134V15.684z"/>
	<path fill="#FFFFFF" d="M154.844,13.881v-1.713h10.185V9.193h-8.052V1.082h18.087v8.111h-7.992v2.975h9.915v1.713H154.844z
		 M157.307,27.19v-6.129h15.323v-2.824h-15.323v-1.713h17.426v6.249H159.41v2.765h15.954v1.652H157.307z M172.931,2.734H159.08
		v4.837h13.851V2.734z"/>
	<path fill="#FFFFFF" d="M201.195,12.138V27.16h-2.103v-7.842c-2.283,0.752-4.146,1.263-6.159,1.263h-13.851v-1.743h4.897v-8.172
		h2.073v8.172h6.88c2.344,0,4.296-0.391,6.159-0.932V0.24h2.103v10.186h4.267v1.712H201.195z M194.105,8.473
		c0,2.043-0.661,5.318-1.262,7.03h-1.563c0.36-1.742,0.751-4.566,0.751-7.03V3.846h-11.116V2.104h13.189V8.473z"/>
	<path fill="#FFFFFF" d="M240.245,7.962c0,2.104-0.661,4.116-1.502,5.858h3.635v2.915h-9.824V27.13h-3.665V16.735h-9.614V13.82
		h16.313c0.541-1.772,0.901-3.515,0.901-5.858V3.786h-15.202V0.842h18.958V7.962z"/>
	<path fill="#FFFFFF" d="M266.769,15.714c-5.048-0.992-8.653-3.726-10.365-7.151c-1.683,3.426-5.318,6.159-10.336,7.181
		l-1.562-2.373c6.099-1.772,8.893-5.288,9.764-9.404h-7.812V1.021h19.89v2.944h-7.812c0.871,4.116,3.695,7.632,9.825,9.404
		L266.769,15.714z M244.926,23.555v-2.914h9.645V13.37h3.666v7.271h9.794v2.914H244.926z"/>
	<path fill="#FFFFFF" d="M285.66,14.241c-2.824-0.841-5.618-2.944-7.15-5.829c-1.502,2.915-4.356,4.988-7.15,5.799l-1.502-2.253
		c5.528-2.403,6.76-6.88,6.76-11.026h3.815c-0.03,4.146,1.353,8.713,6.82,11.026L285.66,14.241z M275.145,27.4v-7.48h14.091v-1.652
		h-14.091v-2.915h17.816v7.481H278.87v1.713h14.692V27.4H275.145z M289.566,14.512V0h3.756v14.512H289.566z"/>
	<path fill="#FFFFFF" d="M318.313,27.431V11.627h-2.283v15.804h-3.696v-8.803c-1.021,0.45-2.373,0.871-3.785,0.871h-11.327v-2.854
		h2.374V4.717h-2.374V1.833h14.062v2.884h-2.374v11.928c1.082-0.06,2.283-0.391,3.425-0.871V0h3.696v8.713h2.283V0h3.665v27.431
		H318.313z M305.272,4.717h-2.103v11.928h2.103V4.717z"/>
</g>
</svg>
