<?xml version="1.0" encoding="utf-8"?>
<!-- Generator: Adobe Illustrator 15.0.0, SVG Export Plug-In . SVG Version: 6.00 Build 0)  -->
<!DOCTYPE svg PUBLIC "-//W3C//DTD SVG 1.0//EN" "http://www.w3.org/TR/2001/REC-SVG-20010904/DTD/svg10.dtd">
<svg version="1.0" id="Layer_1" xmlns="http://www.w3.org/2000/svg" xmlns:xlink="http://www.w3.org/1999/xlink" x="0px" y="0px"
	 width="245px" height="29px" viewBox="0 0 245 29" enable-background="new 0 0 245 29" xml:space="preserve">
<g>
	<path fill="#FFFFFF" d="M2.463,27.19v-6.129h15.323v-2.854H2.463v-1.713h7.632v-2.733H0v-1.713h22.143v1.713H12.138v2.733h7.751
		v6.279H4.566v2.765h15.954v1.652H2.463z M2.133,9.313V0.781h2.133v2.374h13.791V0.781h2.163v8.532H2.133z M18.057,4.808H4.266
		v2.854h13.791V4.808z"/>
	<path fill="#FFFFFF" d="M25.141,13.25V1.172h2.073v4.417h8.382V1.172h2.073v5.077h6.64V0.24h2.104v14.542h-2.104v-6.79h-6.64v5.258
		H25.141z M35.596,7.301h-8.382v4.236h8.382V7.301z M29.467,27.16V16.825h2.104v3.215h12.738v-3.215h2.073V27.16H29.467z
		 M44.309,21.752H31.57v3.756h12.738V21.752z"/>
	<path fill="#FFFFFF" d="M62.119,2.104c-0.3,8.983-6.489,16.193-11.688,18.207c-0.45-0.451-0.631-0.962-1.021-1.383
		c5.679-2.794,10.306-9.734,10.365-15.142h-8.322V2.104H62.119z M71.703,27.19V12.138h-4.356V27.19h-2.103V0.24h2.103v10.186h4.356
		V0.24h2.043v26.95H71.703z"/>
	<path fill="#FFFFFF" d="M99.278,15.112c-4.868-1.021-8.503-4.507-10.366-8.803c-1.803,4.296-5.558,7.722-10.425,8.803l-1.142-1.442
		c6.219-1.952,9.584-5.858,10.365-10.605h-8.353V1.322h19.108v1.742h-8.353c0.781,4.688,4.296,8.653,10.396,10.605L99.278,15.112z
		 M77.766,23.255v-1.713h10.125v-7.481h2.043v7.481h10.275v1.713H77.766z"/>
	<path fill="#FFFFFF" d="M124.841,11.537V27.16h-2.104v-7.631c-2.313,0.751-4.146,1.231-6.159,1.231h-13.971v-1.712h7.061v-5.048
		c-3.335-0.451-5.889-3.125-5.889-6.399c0-3.546,3.095-6.46,6.94-6.46c3.875,0,6.94,2.914,6.94,6.46
		c0,3.274-2.614,5.948-5.949,6.399v5.048h4.867c2.373,0,4.296-0.361,6.159-0.932V0.24h2.104v9.584h4.266v1.713H124.841z
		 M110.72,2.944c-2.704,0-4.897,2.013-4.897,4.657c0,2.613,2.193,4.597,4.897,4.597c2.644,0,4.867-1.983,4.867-4.597
		C115.587,4.688,113.183,2.944,110.72,2.944z"/>
	<path fill="#FFFFFF" d="M156.197,18.838v8.292h-3.665v-8.292h-9.614v-2.884h23.104v2.884H156.197z M144.9,13.22V0.181h3.756v3.966
		h11.447V0.181h3.785V13.22H144.9z M160.104,7.091h-11.447v3.215h11.447V7.091z"/>
	<path fill="#FFFFFF" d="M190.111,9.675v6.579h-3.726V13.01c-1.202,0.57-2.914,0.871-4.597,0.871H168.72V1.232h13.641v2.944h-9.945
		v6.79h9.224c1.803-0.03,3.245-0.12,4.747-0.722V0.03h3.726v6.7h4.056v2.944H190.111z M182.06,28.152
		c-4.026,0-7.241-2.945-7.241-6.55c0-3.575,3.215-6.55,7.241-6.55c4.056,0,7.24,2.975,7.24,6.55
		C189.3,25.207,186.115,28.152,182.06,28.152z M182.06,18.207c-1.953,0-3.545,1.563-3.545,3.396c0,1.893,1.592,3.455,3.545,3.455
		s3.485-1.563,3.485-3.455C185.545,19.77,184.013,18.207,182.06,18.207z"/>
	<path fill="#FFFFFF" d="M195.964,15.653V12.77h22.804v2.884H195.964z M217.535,11.537c-3.905-0.48-8.082-2.434-10.005-5.378
		c-1.862,2.944-6.159,4.928-9.944,5.348l-1.172-2.583c4.717-0.872,9.164-3.636,9.254-8.593h3.726
		c0.09,5.017,4.566,7.721,9.313,8.593L217.535,11.537z M207.41,28.182c-4.446,0-7.391-2.493-7.391-5.648
		c0-3.154,2.944-5.678,7.391-5.678c4.477,0,7.421,2.523,7.421,5.678C214.831,25.688,211.887,28.182,207.41,28.182z M207.41,19.829
		c-2.313,0-3.755,1.082-3.755,2.704c0,1.593,1.441,2.645,3.755,2.645s3.786-1.052,3.786-2.645
		C211.196,20.911,209.453,19.829,207.41,19.829z"/>
	<path fill="#FFFFFF" d="M228.977,15.773c-4.146,0-7.512-3.125-7.512-7.451s3.365-7.451,7.512-7.451c4.176,0,7.48,3.125,7.48,7.451
		S233.152,15.773,228.977,15.773z M228.977,4.056c-2.014,0-3.666,1.713-3.666,4.267c0,2.524,1.652,4.236,3.666,4.236
		c2.043,0,3.695-1.712,3.695-4.236C232.672,5.769,231.02,4.056,228.977,4.056z M225.912,27.431v-9.584h3.755v6.7h14.662v2.884
		H225.912z M240.063,20.34V0h3.726v20.34H240.063z"/>
</g>
</svg>
