<?xml version="1.0" encoding="utf-8"?>
<!-- Generator: Adobe Illustrator 15.0.0, SVG Export Plug-In . SVG Version: 6.00 Build 0)  -->
<!DOCTYPE svg PUBLIC "-//W3C//DTD SVG 1.0//EN" "http://www.w3.org/TR/2001/REC-SVG-20010904/DTD/svg10.dtd">
<svg version="1.0" id="Layer_1" xmlns="http://www.w3.org/2000/svg" xmlns:xlink="http://www.w3.org/1999/xlink" x="0px" y="0px"
	 width="100px" height="12.7px" viewBox="0 0 100 12.7" enable-background="new 0 0 100 12.7" xml:space="preserve">
<g>
	<path fill="#CB4243" d="M17.505,4.101c-0.467-1.228-1.288-2.265-2.374-2.997c-0.522-0.354-1.093-0.626-1.696-0.813
		c-0.61-0.188-1.24-0.284-1.875-0.284c-0.771,0-1.529,0.139-2.257,0.415C9.197,0.463,9.087,0.509,8.971,0.562
		C8.577,0.383,8.166,0.247,7.746,0.153C7.292,0.051,6.827,0,6.362,0C5.82,0,5.275,0.071,4.747,0.209
		C3.918,0.426,3.154,0.799,2.48,1.318c-0.651,0.5-1.193,1.114-1.609,1.826C0.455,3.855,0.184,4.627,0.065,5.44
		c-0.122,0.84-0.073,1.687,0.145,2.514c0.183,0.697,0.478,1.351,0.879,1.941c0.387,0.573,0.863,1.076,1.416,1.496
		c0.548,0.416,1.155,0.738,1.805,0.96c0.661,0.226,1.349,0.339,2.045,0.339c0.542,0,1.086-0.069,1.616-0.208
		c0.333-0.087,0.662-0.202,0.982-0.343c0.405,0.183,0.83,0.323,1.266,0.417c0.441,0.096,0.894,0.145,1.344,0.145l0,0
		c0.771,0,1.53-0.139,2.256-0.416c0.803-0.304,1.521-0.755,2.136-1.344c0.595-0.566,1.066-1.236,1.406-1.986
		c0.338-0.751,0.525-1.548,0.555-2.369C17.947,5.738,17.809,4.902,17.505,4.101z M11.956,9.351c0.275-0.508,0.478-1.049,0.605-1.611
		l0.937,0.232l-1.1-3.82l-2.765,2.86l0.941,0.234c-0.339,1.579-1.55,2.85-3.122,3.26c-0.36,0.095-0.728,0.142-1.096,0.142
		c-1.957,0-3.67-1.32-4.167-3.213c-0.292-1.112-0.132-2.27,0.449-3.261c0.581-0.993,1.514-1.699,2.628-1.992
		c0.359-0.094,0.725-0.141,1.09-0.141c0.171,0,0.343,0.011,0.515,0.031C6.512,2.464,6.202,2.9,5.951,3.372
		C5.683,3.875,5.484,4.408,5.358,4.963L4.52,4.574l0.353,3.957L8.13,6.249L7.28,5.853c0.188-1.604,1.233-2.946,2.751-3.522
		c0.492-0.187,1.007-0.28,1.529-0.28c1.779,0,3.398,1.114,4.031,2.776C16,5.901,15.966,7.07,15.494,8.118
		c-0.472,1.048-1.324,1.85-2.401,2.257c-0.491,0.187-1.003,0.28-1.523,0.28c-0.173,0-0.347-0.011-0.518-0.03
		C11.404,10.239,11.707,9.812,11.956,9.351z"/>
	<g>
		<path fill="#58595B" d="M22.792,7.538c-0.12,0.055-0.204,0.076-0.25,0.057c-0.045-0.017-0.086-0.057-0.12-0.121l-0.403-0.74
			c-0.063-0.119-0.017-0.218,0.138-0.297c0.382-0.195,0.739-0.42,1.074-0.673c0.336-0.255,0.639-0.513,0.91-0.782
			c0.271-0.267,0.503-0.53,0.698-0.791c0.194-0.262,0.34-0.497,0.438-0.708c0.057-0.121,0.082-0.205,0.075-0.253
			c-0.008-0.049-0.067-0.075-0.181-0.075H22.76c-0.099,0-0.157-0.018-0.174-0.057c-0.018-0.041-0.027-0.094-0.027-0.165v-0.76
			c0-0.153,0.071-0.232,0.212-0.232h3.564c0.423,0,0.684,0.103,0.783,0.307c0.099,0.203,0.082,0.486-0.053,0.844
			c-0.105,0.274-0.24,0.556-0.402,0.846c-0.162,0.288-0.349,0.577-0.561,0.865c0.282,0.295,0.594,0.562,0.937,0.797
			c0.342,0.236,0.647,0.431,0.915,0.586c0.119,0.071,0.14,0.16,0.063,0.263l-0.55,0.771c-0.042,0.058-0.083,0.089-0.122,0.097
			c-0.039,0.006-0.098-0.011-0.175-0.054c-0.113-0.063-0.245-0.145-0.396-0.248c-0.153-0.104-0.314-0.219-0.488-0.349
			c-0.172-0.131-0.345-0.27-0.518-0.422c-0.173-0.152-0.337-0.308-0.492-0.47c-0.353,0.361-0.736,0.689-1.151,0.993
			C23.708,7.069,23.264,7.326,22.792,7.538z M30.238,11.232h-5.554c-0.154,0-0.28-0.012-0.375-0.038
			c-0.096-0.023-0.171-0.068-0.229-0.13c-0.056-0.063-0.095-0.145-0.116-0.244c-0.021-0.099-0.032-0.222-0.032-0.369V8.138
			c0-0.147,0.071-0.22,0.212-0.22h1.047c0.141,0,0.211,0.073,0.211,0.22V9.86c0,0.105,0.057,0.157,0.17,0.157h4.665
			c0.056,0,0.105,0.012,0.147,0.038c0.043,0.025,0.063,0.075,0.063,0.153v0.833c0,0.099-0.021,0.155-0.063,0.169
			C30.343,11.225,30.294,11.232,30.238,11.232z M29.942,8.509h-1.069c-0.078,0-0.131-0.016-0.159-0.047
			c-0.028-0.032-0.042-0.087-0.042-0.163V1.477c0-0.134,0.068-0.2,0.202-0.2h1.069c0.127,0,0.189,0.065,0.189,0.2v6.831
			c0,0.078-0.012,0.13-0.037,0.158C30.07,8.494,30.019,8.509,29.942,8.509z"/>
		<path fill="#58595B" d="M40.911,9.68h-9.085c-0.093,0-0.15-0.021-0.176-0.063c-0.023-0.044-0.036-0.095-0.036-0.159V8.698
			c0-0.077,0.012-0.133,0.036-0.169c0.025-0.034,0.083-0.052,0.176-0.052h3.807v-1.72h-1.861c-0.168,0-0.307-0.011-0.413-0.032
			c-0.105-0.021-0.188-0.06-0.249-0.116c-0.059-0.056-0.1-0.133-0.122-0.232c-0.021-0.098-0.032-0.226-0.032-0.379V1.932
			c0-0.134,0.063-0.201,0.19-0.201h1.058c0.142,0,0.211,0.067,0.211,0.201v1.213h3.893V1.92c0-0.14,0.066-0.21,0.201-0.21h1.057
			c0.134,0,0.202,0.071,0.202,0.21v4.108c0,0.266-0.054,0.455-0.16,0.564c-0.105,0.108-0.321,0.163-0.645,0.163h-1.861v1.72h3.807
			c0.148,0,0.222,0.074,0.222,0.222v0.761C41.133,9.607,41.059,9.68,40.911,9.68z M38.309,4.35h-3.893v1.045
			c0,0.104,0.053,0.157,0.159,0.157h3.576c0.105,0,0.158-0.053,0.158-0.157V4.35z"/>
		<path fill="#58595B" d="M46.274,8.308c-0.247,0.063-0.513,0.114-0.8,0.153c-0.284,0.038-0.576,0.066-0.873,0.084
			c-0.295,0.019-0.588,0.027-0.877,0.027c-0.288,0-0.554-0.007-0.792-0.022c-0.297-0.013-0.518-0.084-0.662-0.21
			c-0.146-0.127-0.217-0.338-0.217-0.634V2.239c0-0.149,0.067-0.222,0.202-0.222h1.025c0.148,0,0.222,0.073,0.222,0.222v4.897
			c0,0.141,0.074,0.212,0.222,0.212c0.339,0.013,0.721,0.008,1.148-0.017c0.426-0.023,0.826-0.076,1.201-0.153
			c0.146-0.028,0.232,0.021,0.254,0.148l0.116,0.75c0.013,0.076,0.008,0.129-0.017,0.157C46.403,8.263,46.352,8.287,46.274,8.308z
			 M45.227,5.531c-0.07,0-0.125-0.013-0.164-0.042c-0.039-0.029-0.059-0.081-0.059-0.159V4.518c0-0.091,0.022-0.145,0.069-0.158
			c0.045-0.015,0.097-0.021,0.153-0.021h1.797V1.657c0-0.141,0.072-0.212,0.213-0.212h0.973c0.077,0,0.129,0.016,0.159,0.049
			c0.028,0.032,0.042,0.085,0.042,0.163v9.206c0,0.084-0.013,0.139-0.042,0.164c-0.029,0.024-0.082,0.038-0.159,0.038h-0.973
			c-0.078,0-0.133-0.011-0.164-0.033c-0.033-0.02-0.05-0.076-0.05-0.168V5.531H45.227z M50.378,11.422H49.32
			c-0.077,0-0.131-0.015-0.159-0.043c-0.027-0.028-0.042-0.081-0.042-0.157V1.477c0-0.076,0.016-0.13,0.047-0.158
			s0.087-0.042,0.164-0.042h1.037c0.078,0,0.13,0.014,0.159,0.042c0.028,0.028,0.042,0.083,0.042,0.158v9.746
			c0,0.076-0.012,0.129-0.037,0.157C50.508,11.408,50.457,11.422,50.378,11.422z"/>
		<path fill="#58595B" d="M60.797,9.607h-9.086c-0.093,0-0.15-0.022-0.174-0.063C51.513,9.501,51.5,9.447,51.5,9.385V8.623
			c0-0.075,0.012-0.132,0.037-0.168c0.024-0.034,0.082-0.052,0.174-0.052h9.086c0.149,0,0.222,0.073,0.222,0.22v0.762
			C61.02,9.533,60.946,9.607,60.797,9.607z M59.518,7.073h-5.85c-0.31,0-0.532-0.07-0.667-0.211C52.869,6.722,52.8,6.51,52.8,6.229
			V2.576c0-0.303,0.063-0.503,0.19-0.602c0.128-0.1,0.339-0.149,0.636-0.149h5.838c0.134,0,0.202,0.068,0.202,0.202v0.801
			c0,0.078-0.015,0.13-0.043,0.16c-0.028,0.028-0.081,0.042-0.159,0.042h-5.003c-0.121,0-0.181,0.057-0.181,0.169v0.644h5.037
			c0.147,0,0.222,0.073,0.222,0.222v0.738c0,0.148-0.075,0.222-0.222,0.222h-5.037V5.71c0,0.113,0.06,0.169,0.181,0.169h5.056
			c0.162,0,0.243,0.06,0.243,0.179v0.803C59.761,7.003,59.68,7.073,59.518,7.073z"/>
		<path fill="#58595B" d="M65.315,11.116h-1.016c-0.149,0-0.222-0.074-0.222-0.222V7.844c-0.401,0.014-0.794,0.021-1.179,0.021
			c-0.384,0-0.767-0.004-1.148-0.01c-0.084-0.007-0.139-0.029-0.164-0.063c-0.024-0.037-0.037-0.093-0.037-0.169v-0.76
			c0-0.077,0.013-0.132,0.042-0.164c0.028-0.032,0.082-0.048,0.159-0.048c1.002,0.021,2.01,0.015,3.026-0.021
			c1.016-0.036,2.013-0.127,2.993-0.274c0.106-0.013,0.175-0.012,0.207,0.005c0.032,0.019,0.054,0.064,0.069,0.143l0.083,0.771
			c0.015,0.092,0.006,0.147-0.025,0.169c-0.032,0.021-0.083,0.038-0.153,0.052c-0.388,0.063-0.784,0.119-1.185,0.163
			c-0.403,0.046-0.812,0.082-1.227,0.111v3.125C65.537,11.042,65.463,11.116,65.315,11.116z M64.785,5.997
			c-0.359,0-0.694-0.051-1.003-0.154c-0.311-0.102-0.581-0.245-0.811-0.431c-0.229-0.188-0.409-0.41-0.54-0.667
			c-0.129-0.256-0.195-0.543-0.195-0.86c0-0.302,0.066-0.583,0.195-0.846c0.131-0.259,0.31-0.485,0.54-0.673
			c0.229-0.191,0.5-0.34,0.811-0.45c0.309-0.108,0.645-0.163,1.003-0.163c0.368,0,0.707,0.055,1.022,0.163
			c0.313,0.11,0.583,0.258,0.809,0.45c0.225,0.188,0.403,0.415,0.535,0.673c0.129,0.262,0.194,0.543,0.194,0.846
			c0,0.317-0.065,0.604-0.194,0.86c-0.132,0.257-0.31,0.479-0.535,0.667c-0.226,0.186-0.496,0.33-0.809,0.431
			C65.492,5.945,65.153,5.997,64.785,5.997z M64.785,2.945c-0.31,0-0.575,0.09-0.793,0.269c-0.218,0.18-0.327,0.402-0.327,0.67
			c0,0.134,0.029,0.26,0.09,0.375c0.06,0.116,0.141,0.217,0.243,0.301c0.101,0.084,0.222,0.15,0.359,0.195
			c0.138,0.046,0.281,0.068,0.428,0.068c0.163,0,0.313-0.022,0.451-0.068c0.138-0.045,0.256-0.111,0.359-0.195
			s0.182-0.185,0.238-0.301c0.056-0.115,0.085-0.241,0.085-0.375c0-0.268-0.107-0.49-0.323-0.67
			C65.38,3.035,65.11,2.945,64.785,2.945z M69.811,11.4h-1.079c-0.078,0-0.131-0.011-0.159-0.037
			c-0.028-0.024-0.043-0.078-0.043-0.163V9.354h-1.682c-0.063,0-0.113-0.014-0.152-0.038c-0.039-0.023-0.059-0.079-0.059-0.164
			V8.382c0-0.083,0.021-0.139,0.063-0.159c0.042-0.021,0.091-0.031,0.147-0.031h1.682V1.477c0-0.076,0.015-0.13,0.043-0.158
			c0.028-0.028,0.081-0.042,0.159-0.042h1.079c0.077,0,0.129,0.014,0.159,0.042c0.028,0.028,0.042,0.083,0.042,0.158v9.724
			c0,0.085-0.014,0.139-0.042,0.163C69.94,11.389,69.888,11.4,69.811,11.4z"/>
		<path fill="#58595B" d="M72.952,6.145c-0.078,0-0.129-0.017-0.152-0.049c-0.026-0.031-0.038-0.088-0.038-0.173V5.131
			c0-0.084,0.012-0.143,0.038-0.174c0.023-0.032,0.074-0.047,0.152-0.047c0.437,0,0.889,0,1.354,0c0.465,0,0.928-0.002,1.387-0.005
			c0.458-0.004,0.903-0.01,1.336-0.019c0.435-0.005,0.839-0.02,1.212-0.042c0.013-0.245,0.025-0.485,0.032-0.717
			c0.007-0.233,0.01-0.453,0.01-0.664c0-0.106-0.015-0.183-0.046-0.228c-0.033-0.045-0.128-0.07-0.292-0.07h-5.035
			c-0.07,0-0.127-0.007-0.17-0.024c-0.042-0.018-0.062-0.072-0.062-0.164V2.142c0-0.077,0.021-0.125,0.062-0.147
			c0.043-0.021,0.1-0.032,0.17-0.032h6.094c0.254,0,0.442,0.057,0.565,0.174c0.124,0.116,0.186,0.323,0.186,0.618
			c0,0.542-0.012,1.091-0.037,1.647c-0.025,0.556-0.057,1.084-0.096,1.583c-0.038,0.5-0.082,0.96-0.132,1.383
			c-0.049,0.423-0.098,0.77-0.148,1.045h1.344c0.147,0,0.222,0.073,0.222,0.222v0.761c0,0.148-0.075,0.222-0.222,0.222l-9.087-0.011
			c-0.092,0-0.15-0.022-0.175-0.063c-0.025-0.043-0.037-0.097-0.037-0.159V8.623c0-0.075,0.011-0.132,0.037-0.168
			c0.024-0.034,0.083-0.052,0.175-0.052l6.335,0.011c0.042-0.295,0.085-0.648,0.128-1.056c0.043-0.409,0.081-0.845,0.116-1.309
			C77.797,6.07,77.39,6.088,76.96,6.102c-0.43,0.015-0.872,0.022-1.327,0.026c-0.456,0.005-0.91,0.007-1.365,0.011
			C73.813,6.143,73.375,6.145,72.952,6.145z"/>
		<path fill="#58595B" d="M85.879,6.957c-0.058,0.078-0.112,0.116-0.164,0.116c-0.054,0-0.118-0.028-0.196-0.084
			c-0.106-0.063-0.225-0.151-0.354-0.264c-0.13-0.112-0.264-0.238-0.397-0.374c-0.133-0.138-0.264-0.284-0.391-0.438
			s-0.235-0.313-0.328-0.475c-0.227,0.408-0.491,0.778-0.794,1.108c-0.304,0.331-0.634,0.608-0.993,0.833
			c-0.1,0.058-0.164,0.083-0.197,0.079c-0.031-0.002-0.071-0.037-0.12-0.1l-0.498-0.634c-0.057-0.07-0.098-0.131-0.126-0.185
			c-0.028-0.053,0.008-0.118,0.104-0.194c0.381-0.275,0.7-0.583,0.957-0.924c0.258-0.341,0.467-0.703,0.624-1.082
			c0.16-0.38,0.273-0.77,0.346-1.167c0.069-0.397,0.104-0.786,0.104-1.166c0-0.099,0.015-0.162,0.042-0.19
			c0.029-0.028,0.092-0.038,0.191-0.032l0.982,0.052c0.077,0.007,0.134,0.025,0.164,0.054c0.033,0.027,0.048,0.081,0.048,0.159
			c0,0.302-0.018,0.598-0.053,0.885c-0.035,0.29-0.084,0.574-0.146,0.855c0.167,0.494,0.4,0.911,0.697,1.251
			c0.296,0.341,0.613,0.646,0.953,0.912c0.069,0.058,0.104,0.106,0.099,0.149c-0.002,0.043-0.025,0.091-0.068,0.148L85.879,6.957z
			 M90.384,11.232H84.29c-0.146,0-0.269-0.012-0.363-0.038c-0.097-0.023-0.17-0.064-0.224-0.121
			c-0.053-0.057-0.089-0.134-0.109-0.231c-0.022-0.1-0.033-0.222-0.033-0.37V8.118c0-0.148,0.07-0.222,0.211-0.222h1.049
			c0.142,0,0.211,0.074,0.211,0.222v1.753c0,0.105,0.057,0.158,0.17,0.158h5.183c0.057,0,0.106,0.012,0.149,0.036
			c0.04,0.025,0.063,0.077,0.063,0.154v0.823c0,0.099-0.022,0.155-0.063,0.169C90.49,11.225,90.44,11.232,90.384,11.232z
			 M85.813,4.612c-0.133,0-0.2-0.07-0.2-0.209v-0.76c0-0.099,0.018-0.156,0.053-0.174c0.035-0.018,0.084-0.027,0.147-0.027h1.068
			V1.646c0-0.078,0.018-0.13,0.049-0.158c0.032-0.028,0.086-0.043,0.165-0.043h0.993c0.076,0,0.13,0.015,0.158,0.043
			c0.029,0.028,0.042,0.081,0.042,0.158v6.218c0,0.078-0.013,0.129-0.042,0.152c-0.028,0.026-0.082,0.039-0.158,0.039h-0.993
			c-0.079,0-0.133-0.013-0.165-0.039c-0.031-0.023-0.049-0.074-0.049-0.152V4.612H85.813z M90.142,8.298h-1.048
			c-0.078,0-0.131-0.015-0.158-0.044c-0.029-0.027-0.043-0.081-0.043-0.157v-6.62c0-0.134,0.07-0.2,0.211-0.2h1.038
			c0.076,0,0.13,0.014,0.157,0.042c0.029,0.028,0.044,0.083,0.044,0.158v6.62c0,0.077-0.015,0.13-0.044,0.157
			C90.271,8.284,90.218,8.298,90.142,8.298z"/>
		<path fill="#58595B" d="M95.916,5.88c-0.41,0.028-0.832,0.048-1.27,0.058c-0.437,0.01-0.866,0.019-1.29,0.026v1.415
			c0,0.128,0.064,0.191,0.19,0.191c0.473,0.013,1.004,0.001,1.598-0.038c0.593-0.039,1.17-0.107,1.733-0.206
			c0.078-0.014,0.132-0.009,0.159,0.016c0.029,0.026,0.05,0.065,0.063,0.122l0.128,0.77c0.014,0.078,0.006,0.13-0.021,0.158
			c-0.028,0.029-0.082,0.054-0.159,0.075c-0.295,0.071-0.637,0.13-1.021,0.179c-0.385,0.05-0.777,0.089-1.179,0.117
			c-0.403,0.028-0.796,0.044-1.181,0.048c-0.384,0.003-0.728-0.001-1.031-0.016c-0.254-0.007-0.442-0.054-0.565-0.138
			s-0.186-0.274-0.186-0.569V2.703c0-0.142,0.011-0.256,0.031-0.344c0.022-0.087,0.059-0.156,0.111-0.205
			c0.054-0.05,0.127-0.084,0.223-0.101c0.095-0.019,0.217-0.027,0.364-0.027h3.598c0.077,0,0.132,0.012,0.164,0.036
			c0.031,0.025,0.047,0.076,0.047,0.152V3.05c0,0.078-0.016,0.127-0.047,0.149C96.345,3.221,96.29,3.23,96.213,3.23h-2.709
			c-0.069,0-0.113,0.013-0.127,0.042c-0.013,0.029-0.021,0.064-0.021,0.105v1.394c0.438,0,0.868-0.002,1.295-0.011
			c0.428-0.006,0.828-0.021,1.201-0.042c0.155-0.006,0.232,0.047,0.232,0.16v0.792C96.085,5.802,96.028,5.873,95.916,5.88z
			 M99.808,11.4H98.73c-0.078,0-0.131-0.011-0.16-0.037c-0.027-0.024-0.042-0.078-0.042-0.163V5.837h-1.438
			c-0.071,0-0.123-0.012-0.159-0.037s-0.054-0.076-0.054-0.153V4.834c0-0.076,0.018-0.13,0.054-0.158
			c0.036-0.028,0.088-0.042,0.159-0.042h1.438V1.477c0-0.076,0.015-0.13,0.042-0.158c0.029-0.028,0.082-0.042,0.16-0.042h1.077
			c0.078,0,0.13,0.014,0.155,0.042C99.986,1.347,100,1.401,100,1.477v9.724c0,0.085-0.014,0.139-0.037,0.163
			C99.938,11.389,99.886,11.4,99.808,11.4z"/>
	</g>
</g>
</svg>
