<?xml version="1.0" encoding="utf-8"?>
<!-- Generator: Adobe Illustrator 15.0.0, SVG Export Plug-In . SVG Version: 6.00 Build 0)  -->
<!DOCTYPE svg PUBLIC "-//W3C//DTD SVG 1.0//EN" "http://www.w3.org/TR/2001/REC-SVG-20010904/DTD/svg10.dtd">
<svg version="1.0" id="Layer_1" xmlns="http://www.w3.org/2000/svg" xmlns:xlink="http://www.w3.org/1999/xlink" x="0px" y="0px"
	 width="482px" height="24px" viewBox="0 0 482 24" enable-background="new 0 0 482 24" xml:space="preserve">
<g>
	<path fill="#2C445A" d="M6.402,9.231C5.225,8.784,4.174,7.69,3.572,5.926C2.998,7.705,1.891,8.825,0.77,9.247L0,8.503
		c2.55-1.5,2.816-4.413,2.83-7.579h1.513C4.357,4.09,4.61,7.003,7.172,8.503L6.402,9.231z M7.606,12.803V5.224H5.478V4.062h2.129
		V0.211h1.526v12.592H7.606z M10.17,12.803V0.211h1.514v12.592H10.17z"/>
	<path fill="#2C445A" d="M22.139,7.873V7.55H19.66V6.541h2.494V5.687c-0.49,0.266-1.373,0.672-2.605,0.672h-2.24v1.444h-1.541V6.359
		h-2.551V5.197h6.359c1.191,0,2.229-0.463,2.578-0.645V0.211h1.555v7.663L22.139,7.873L22.139,7.873z M16.914,4.847
		c-1.793,0-3.222-0.911-3.222-2.326c0-1.26,1.231-2.297,3.25-2.297c2.017,0,3.235,1.037,3.235,2.297
		C20.178,3.936,18.693,4.847,16.914,4.847z M15.177,12.788V9.903h6.989V9.315h-6.989V8.153h8.545v2.899h-6.989v0.603h7.256v1.135
		h-8.812V12.788z M16.942,1.331c-1.051,0-1.751,0.519-1.751,1.19c0,0.687,0.7,1.191,1.751,1.191s1.751-0.505,1.751-1.191
		C18.693,1.849,17.993,1.331,16.942,1.331z"/>
	<path fill="#2C445A" d="M33.479,2.605c0.56,0.547,0.84,1.415,0.84,2.158c0,1.596-1.204,2.927-2.913,3.236v1.835h4.58v1.147H25.41
		V9.834h4.482V7.999c-1.725-0.309-2.929-1.64-2.929-3.236c0-0.743,0.28-1.611,0.826-2.158h-1.905V1.457h4.021V0h1.513v1.457h4.104
		v1.148H33.479z M30.648,2.648c-1.514,0-2.157,1.078-2.157,2.115c0,1.176,0.911,2.185,2.157,2.185c1.247,0,2.157-1.009,2.157-2.185
		C32.806,3.726,32.176,2.648,30.648,2.648z"/>
	<path fill="#2C445A" d="M37.1,7.634V6.472h10.436v1.162H37.1z M38.038,5.056V0.644h1.555v3.208h7.158v1.204H38.038z M38.192,12.803
		V8.756h1.555v2.897h7.061v1.148L38.192,12.803L38.192,12.803z"/>
	<path fill="#2C445A" d="M58.087,6.542v2.087h0.868c0.729,0,1.415-0.11,2.172-0.363V0.211h1.498v4.622h1.163V0.211h1.499V12.79
		h-1.499V5.996h-1.163v6.792h-1.498V9.386c-0.785,0.268-1.261,0.42-2.172,0.42h-4.847V8.629h2.494V6.556
		c-1.262-0.322-2.229-1.443-2.229-2.887c0-1.68,1.346-2.955,2.955-2.955c1.625,0,2.956,1.275,2.956,2.955
		C60.286,5.099,59.334,6.219,58.087,6.542z M57.33,1.906c-0.798,0-1.456,0.728-1.456,1.764c0,1.037,0.658,1.766,1.456,1.766
		c0.813,0,1.457-0.729,1.457-1.766C58.787,2.521,58.073,1.906,57.33,1.906z"/>
	<path fill="#2C445A" d="M69.552,10.196v1.906h-1.976v-1.906H69.552z"/>
</g>
<g>
	<g>
		<rect x="180" y="1.207" fill="#FDF496" width="3.766" height="3.768"/>
		<rect x="186.235" y="1.207" fill="#FDF496" width="3.766" height="3.768"/>
		<rect x="186.235" y="7.83" fill="#FDF496" width="3.766" height="3.766"/>
		<rect x="180" y="7.83" fill="#FDF496" width="3.766" height="3.766"/>
	</g>
	<g>
		<path fill="#FFFFFF" d="M206.039,10.001c-1.316-0.476-2.718-1.707-3.418-3.656c-0.688,1.949-2.073,3.25-3.361,3.684l-0.771-0.84
			c2.492-1.274,3.208-3.461,3.334-5.745h-2.593V2.297h2.619V0.322h1.557v1.975h2.843v1.148h-2.801
			c0.11,2.283,0.825,4.469,3.333,5.745L206.039,10.001z M208,12.802V6.121h-2.717V4.959H208v-4.75h1.555v12.593H208z"/>
		<path fill="#FFFFFF" d="M211.229,7.606V6.443h10.437v1.163H211.229z M212.323,12.791V8.671h8.348v4.119H212.323z M216.468,5.688
			c-2.199,0-3.95-1.01-3.95-2.844c0-1.85,1.751-2.844,3.95-2.844s3.938,0.994,3.938,2.844
			C220.405,4.678,218.667,5.688,216.468,5.688z M219.13,9.819h-5.268v1.836h5.268V9.819z M216.468,1.246
			c-1.357,0-2.423,0.518-2.423,1.598c0,1.078,1.063,1.596,2.423,1.596c1.345,0,2.409-0.518,2.409-1.596
			C218.877,1.764,217.812,1.246,216.468,1.246z"/>
		<path fill="#FFFFFF" d="M222.78,10.998V9.833h10.59v1.164H222.78z M228.033,7.916c-2.425,0-4.118-1.654-4.118-3.685
			c0-2.061,1.693-3.713,4.118-3.713c2.437,0,4.117,1.652,4.117,3.713C232.15,6.262,230.469,7.916,228.033,7.916z M228.033,1.68
			c-1.583,0-2.593,1.164-2.593,2.551c0,1.373,1.01,2.535,2.593,2.535c1.567,0,2.577-1.162,2.577-2.535
			C230.61,2.844,229.6,1.68,228.033,1.68z"/>
		<path fill="#FFFFFF" d="M235.24,7.705V3.614h7.115V1.779h-7.115V0.602h8.671v4.189h-7.13v1.75h7.424v1.164h-3.88v2.129h4.58v1.164
			H234.33V9.833h4.481V7.705H235.24z"/>
	</g>
</g>
<g>
	<g>
		<path fill="#FFFFFF" d="M128.92,6.201v4.217h-1.556V8.092c-0.783,0.281-1.499,0.42-2.424,0.42h-6.358V7.349h2.298V4.465h1.513
			V7.35h2.549c0.953,0,1.725-0.141,2.424-0.35V0.92h1.556v4.105h1.904v1.176H128.92z M125.865,3.945
			c0,0.912-0.237,1.443-0.657,2.299h-1.262c0.28-0.883,0.364-1.457,0.364-2.229V2.601h-5.015V1.396h6.568L125.865,3.945
			L125.865,3.945z M120.654,13.514V9.618h1.556v2.746h6.962v1.148L120.654,13.514L120.654,13.514z"/>
		<path fill="#FFFFFF" d="M138.717,13.514V8.245h-2.689V7.292c-1.093,1.725-2.563,2.943-3.895,3.418l-0.756-0.84
			c2.591-1.191,4.595-4.483,4.679-6.948h-3.685V1.761h5.337c-0.015,0.811-0.126,1.582-0.309,2.311h1.316V0.92h1.525v12.594H138.717z
			 M138.717,7.111V5.207h-1.653c-0.252,0.686-0.574,1.316-0.924,1.904H138.717z M141.35,13.514V0.92h1.513v12.594H141.35z"/>
		<path fill="#FFFFFF" d="M145.448,7.461V1.396h8.686v1.191h-7.13v3.697h7.13V7.46h-3.586v3.083h4.565v1.164h-10.574v-1.164h4.495
			V7.46L145.448,7.461L145.448,7.461z"/>
	</g>
	<path fill="#FDF496" d="M110.093,3.768V0h-3.766v1.239c-0.288,0.053-0.588,0.132-0.898,0.275c-1.367,0.631-2.392,2.055-3.042,4.227
		c-0.004,0.008-0.418,0.849-3.621,0.96V5.334H95v3.769h3.766V7.831c3.202,0.11,3.617,0.953,3.617,0.953
		c0.653,2.18,1.678,3.604,3.045,4.232c0.31,0.143,0.612,0.229,0.899,0.282v1.135h3.766v-3.766h-3.766v1.607
		c-0.162-0.041-0.327-0.093-0.496-0.172c-1.087-0.509-1.926-1.722-2.48-3.564c-0.033-0.155-0.155-0.46-0.578-0.771h3.554V9.1h3.766
		V5.334h-3.766v1.433h-3.546c0.413-0.303,0.531-0.595,0.56-0.732c0.564-1.883,1.403-3.096,2.491-3.604
		c0.169-0.079,0.334-0.131,0.495-0.172v1.51H110.093z"/>
</g>
<g>
	<g>
		
			<rect x="275.461" y="0.779" transform="matrix(-0.7072 -0.707 0.707 -0.7072 471.6089 200.6228)" fill="#FDF496" width="3.765" height="3.768"/>
		
			<rect x="279.889" y="5.17" transform="matrix(-0.7072 -0.707 0.707 -0.7072 476.0449 211.2675)" fill="#FDF496" width="3.766" height="3.768"/>
		
			<rect x="275.197" y="9.863" transform="matrix(-0.7072 -0.707 0.707 -0.7072 464.7368 215.942)" fill="#FDF496" width="3.765" height="3.766"/>
		
			<rect x="270.779" y="5.463" transform="matrix(-0.707 -0.7072 0.7072 -0.707 460.2509 205.3573)" fill="#FDF496" width="3.765" height="3.764"/>
	</g>
	<g>
		<path fill="#FFFFFF" d="M292.915,7.868V1.537h6.178v6.331H292.915z M297.537,2.741h-3.096v3.951h3.096V2.741z M294.567,13.499
			V9.144h1.555v3.207h6.836v1.148H294.567z M302.706,5.782v4.413h-1.541V0.907h1.541v3.711h1.892v1.164H302.706z"/>
		<path fill="#FFFFFF" d="M305.431,8.597V7.434h10.436v1.164H305.431z M306.384,6.088V1.34h8.643v1.205h-7.088v2.367h7.103v1.176
			H306.384z M306.523,13.499V9.591h1.555v2.76h7.061v1.148H306.523z"/>
		<path fill="#FFFFFF" d="M320.734,9.858c-2.045,0-3.614-1.863-3.614-4.092c0-2.213,1.569-4.061,3.614-4.061
			s3.586,1.848,3.586,4.061C324.32,7.995,322.779,9.858,320.734,9.858z M320.734,2.854c-1.261,0-2.06,1.387-2.06,2.912
			c0,1.527,0.799,2.958,2.06,2.958c1.232,0,2.059-1.431,2.059-2.958C322.793,4.241,321.968,2.854,320.734,2.854z M326.141,13.499
			V0.907h1.555v12.592H326.141z"/>
		<path fill="#FFFFFF" d="M329.37,7.391V6.229h10.437v1.162H329.37z M330.322,5.291V1.299h8.644v1.135h-7.089V4.17h7.104v1.121
			H330.322z M330.463,13.499v-3.18h6.794V9.452h-6.794V8.288h8.349v3.195h-6.793v0.881h7.06v1.135H330.463z"/>
	</g>
</g>
<g>
	<g>
		<path fill="#FFFFFF" d="M399.407,11.489v6.807h-1.541V14.29c-0.421,0.168-0.911,0.309-1.401,0.309h-6.919V6.558h6.724v1.15h-1.625
			v5.756h1.82c0.519,0,0.98-0.125,1.401-0.293V5.704h1.541v4.623h1.904v1.162H399.407z M393.09,7.708h-2.004v5.756h2.004V7.708z"/>
		<path fill="#FFFFFF" d="M408.154,12.862v2.465h4.566v1.162h-10.575v-1.162h4.496v-2.465c-2.045-0.281-3.376-1.682-3.376-3.461
			c0-1.988,1.667-3.529,4.118-3.529c2.466,0,4.118,1.541,4.118,3.529C411.502,11.167,410.185,12.581,408.154,12.862z M407.384,7.034
			c-1.597,0-2.591,1.064-2.591,2.367c0,1.289,0.994,2.354,2.591,2.354c1.583,0,2.578-1.064,2.578-2.354
			C409.962,8.099,408.967,7.034,407.384,7.034z"/>
		<path fill="#FFFFFF" d="M420.966,6.558c-0.112,5.211-4.146,7.957-6.738,8.813l-0.672-0.828c2.76-1.105,5.505-3.922,5.589-6.85
			h-4.58V6.558H420.966z M422.801,18.296V5.704h1.541v12.592H422.801z"/>
		<path fill="#FFFFFF" d="M441.77,13.071c-2.228-0.434-4.006-1.736-4.763-3.516c-0.756,1.766-2.535,3.068-4.763,3.516l-0.63-0.951
			c3.193-0.896,4.51-3.264,4.622-6.094h1.541c0.112,2.83,1.442,5.197,4.637,6.094L441.77,13.071z M431.741,16.489v-1.162h10.59
			v1.162H431.741z"/>
		<path fill="#FFFFFF" d="M451.765,14.991v-2.648c-0.448,0.168-1.022,0.322-1.723,0.322h-6.738v-1.162h1.232V7.524h-1.232V6.335
			h7.34v1.189h-1.246v3.979h0.798c0.505-0.027,1.064-0.125,1.569-0.309v-5.49h1.541v9.287H451.765z M445.168,18.296v-4.342h1.555
			v3.193h6.836v1.148H445.168z M447.885,7.524h-1.835v3.979h1.835V7.524z"/>
		<path fill="#FFFFFF" d="M460.99,12.862v2.465h4.566v1.162h-10.575v-1.162h4.496v-2.465c-2.045-0.281-3.376-1.682-3.376-3.461
			c0-1.988,1.667-3.529,4.118-3.529c2.466,0,4.118,1.541,4.118,3.529C464.338,11.167,463.021,12.581,460.99,12.862z M460.219,7.034
			c-1.597,0-2.591,1.064-2.591,2.367c0,1.289,0.994,2.354,2.591,2.354c1.583,0,2.578-1.064,2.578-2.354
			C462.798,8.099,461.802,7.034,460.219,7.034z"/>
		<path fill="#FFFFFF" d="M466.671,16.489v-1.162h10.59v1.162H466.671z M467.329,12.665v-1.162h1.555V7.497h-1.555V6.321h9.161
			v1.176h-1.541v4.006h1.541v1.162H467.329z M473.436,7.497h-3.012v4.006h3.012V7.497z"/>
	</g>
	<path fill="#FCF396" d="M370.147,24c0.2-0.118,0.098-0.399,0.032-0.534c0.117-0.02,0.135-0.12-0.047-0.371
		c-0.207-0.281-0.654-0.645-0.69-0.642c-0.04,0,0.236-0.09,1.054,0.232c0.271,0.104,0.32,0.038,0.32,0.038s0.32,0.343,0.555,0.149
		c0,0,0.01-0.009,0.02-0.011c0.098,0.076,0.268,0.245,0.349,0.506c0.098,0.348,0.098-0.422-0.269-0.613
		c0.049-0.133-0.125-0.223-0.296-0.253c-0.161-0.028-0.622-0.188-0.995-0.277c0.394,0.049,0.945,0.075,0.939-0.13
		c0-0.007,0-0.015,0-0.023c0.129-0.008,0.435-0.008,0.622,0.18c0.222,0.227-0.22-0.533-0.685-0.377
		c-0.102-0.094-0.345-0.067-0.86-0.037c-0.752,0.037-1.163,0.2-1.534-0.354c-0.375-0.557-0.402-1.395-0.43-1.613
		c-0.009-0.107-0.097-0.744-0.182-1.379c0.321,0.283,0.623,0.563,0.611,0.599c-0.234,0.646-0.117,1.101-0.176,1.472
		c-0.014,0.11-0.014,0.188-0.002,0.25c-0.041,0.488,0.705,0.378,0.444,0.335c-0.193-0.036-0.313-0.163-0.36-0.23
		c-0.021-0.073-0.06-0.21,0.018-0.146c0.398,0.21,0.209-0.21,0.209-0.21c-0.056-0.127-0.125-0.783,0.093-0.766
		c0.339,0.027,0.27,0.525,0.27,0.525c-0.009,0.54-0.056,0.128-0.079,0.434c-0.025,0.287,0.111,0.367,0.224,0.377
		c-0.081,0.1-0.212,0.223-0.358,0.245c-0.234,0.034,0.189,0.242,0.495-0.249c0.01,0.022,0.019,0.055,0.036,0.076
		c0.088,0.321-0.293,0.554-0.238,0.535c0.467-0.167,0.353-0.482,0.298-0.584c0.008-0.092-0.002-0.275-0.045-0.618
		c-0.134-1.127-0.433-1.362-0.591-1.556c-0.053-0.066-0.43-0.426-0.909-0.889c-0.071-0.535-0.137-0.978-0.137-0.978
		s0.188-0.409-0.12-0.536c0.547-1.194,0.52-1.596,0.52-1.596c0.229-0.21,0.318-0.143,0.318-0.143l0.104-0.139
		c0.067-0.133,1.142-2.215,1.376-2.1c0.581-0.02,1.187-0.695,1.651-1.009c0.469-0.313,0.818-0.324,0.818-0.324
		s0.852-0.31,1.971-1.312c1.28-1.136,1.517-2.746,0.854-4.338c-0.54-1.295-2.109-1.985-2.632-2.945
		c-0.342-0.646,2.491-0.162,2.778-0.066c0.108,0.042,0.222,0.076,0.339,0.107c3.118,0.821,5.04,3.244,5.04,3.244
		s0.313,0.404,0.128,0.094c-0.968-1.648-2.875-2.961-4.428-3.615c-0.982-0.408-1.535-0.801-1.816-1.037
		c-0.063-0.09-0.141-0.184-0.223-0.283c-0.852-1.012-1.549-1.127-2.178-1.115c-0.061,0.002-0.113,0.015-0.158,0.037
		c-0.121,0.021-0.248,0.049-0.377,0.096c-0.207,0.075-0.428,0.189-0.652,0.349c-1.302,0.921-1.031,2.69,0.125,3.579
		c0.947,0.721,3.127,1.506,2.511,3.104c-0.478,1.241-0.897-0.008-1.601-0.797c0,0-1.701-2.188-5.395-0.227
		c-3.315,1.76-3.073,2.705-3.553,3.256c-0.053,0.066-0.117,0.125-0.199,0.179c-0.774,0.522-2.127,3.135-2.113,3.836
		c0.006,0.368-0.088,0.731-0.186,1.08c-0.071,0.253-0.242,0.501-0.275,0.763c-0.039,0.301,0.027,0.505-0.124,0.816
		c-0.11,0.227-0.216,0.459-0.296,0.707c-0.014,0.051-0.128,0.337-0.002,0.337c0.031-0.004,0.047-0.034,0.07-0.047
		c0.042-0.026,0.104-0.051,0.154-0.056c0.006,0.013,0.018,0.027,0.028,0.035c0.075,0.041,0.134,0.067,0.22,0.047
		c0.186-0.049,0.394-0.255,0.514-0.397c0-0.006,0.047-0.06,0.047-0.06s0.359,0.483,1.176-1.188l0.033-0.119
		c0,0,0.067-0.234,0.439-0.136c0.376,0.101,0.985-0.495,1.051-0.573c0.07-0.083,0.146-0.041,0.146-0.041s0.444,0.32,1.203-0.215
		c0.154-0.113,0.224-0.033,0.224-0.033c0.114,0.082,0.208,0.133,0.292,0.154c-0.064,0.322-0.172,0.656-0.363,0.838
		c-0.445,0.416-0.225,0.709-0.067,0.716c0.155,0.005,2.089,1.833,2.089,1.833s0.143,0.117,0.34,0.283
		c0.182,0.927,0.422,2.32,0.422,3.258c0,0,0.009,0.23-1.718,0.402c-0.43,0.039-0.491,0.158-0.485,0.211
		c-0.242-0.002-0.613,0.066-0.69,0.528c-0.011,0.058,0.353-0.372,0.696-0.407c-0.002,0.02,0,0.035,0.003,0.049
		c0.063,0.146,0.271,0.104,0.384,0.078c0.205-0.048,0.395-0.142,0.604-0.188c0.169-0.031,0.339-0.058,0.514-0.066
		c0.337-0.032,0.699-0.036,1.029,0.072c0.153,0.057,0.319,0.154,0.435,0.275c0,0,0.953,0.741,0.986,0.846
		c0.026,0.092,0.115,0.215,0.238,0.244C370.138,23.576,370.198,23.77,370.147,24z M367.453,17.183c0,0,0.043,0.189,0.109,0.493
		c-0.902-0.856-1.918-1.818-1.918-1.818c0.172-0.287-0.031-0.321-0.046-0.321c-0.147-0.066,0.563-0.957,0.821-1.271
		c0.405-0.013,0.302-0.446,0.795-0.313c0.461,0.122,0.733-0.289,0.836-0.467c-0.09,0.199-0.285,0.689-0.191,1.072l-0.586,1.885
		C367.273,16.442,367.055,16.787,367.453,17.183z"/>
</g>
</svg>
