<?xml version="1.0" encoding="utf-8"?>
<!-- Generator: Adobe Illustrator 15.0.0, SVG Export Plug-In . SVG Version: 6.00 Build 0)  -->
<!DOCTYPE svg PUBLIC "-//W3C//DTD SVG 1.0//EN" "http://www.w3.org/TR/2001/REC-SVG-20010904/DTD/svg10.dtd">
<svg version="1.0" id="Layer_1" xmlns="http://www.w3.org/2000/svg" xmlns:xlink="http://www.w3.org/1999/xlink" x="0px" y="0px"
	 width="70px" height="13px" viewBox="0 0 70 13" enable-background="new 0 0 70 13" xml:space="preserve">
<g>
	<path fill="#2C445A" d="M6.402,9.231C5.226,8.783,4.175,7.69,3.572,5.926c-0.574,1.779-1.681,2.899-2.802,3.32L0,8.503
		c2.55-1.499,2.816-4.412,2.83-7.578h1.513c0.014,3.166,0.267,6.079,2.829,7.578L6.402,9.231z M7.606,12.803V5.225H5.478V4.063
		h2.129V0.211h1.527v12.592H7.606z M10.17,12.803V0.211h1.513v12.592H10.17z"/>
	<path fill="#2C445A" d="M22.139,7.873V7.551h-2.479V6.542h2.494V5.688c-0.49,0.266-1.373,0.672-2.605,0.672h-2.241v1.443h-1.541
		V6.359h-2.55V5.197h6.359c1.191,0,2.228-0.463,2.578-0.645V0.211h1.555v7.662H22.139z M16.914,4.848
		c-1.793,0-3.222-0.911-3.222-2.326c0-1.26,1.232-2.297,3.25-2.297c2.017,0,3.235,1.037,3.235,2.297
		C20.178,3.937,18.693,4.848,16.914,4.848z M15.177,12.789V9.904h6.99V9.315h-6.99V8.152h8.545v2.9h-6.989v0.602h7.256v1.135H15.177
		z M16.942,1.331c-1.051,0-1.751,0.519-1.751,1.19c0,0.687,0.7,1.191,1.751,1.191s1.751-0.505,1.751-1.191
		C18.693,1.85,17.993,1.331,16.942,1.331z"/>
	<path fill="#2C445A" d="M33.479,2.605c0.56,0.547,0.84,1.415,0.84,2.158c0,1.596-1.204,2.927-2.913,3.235v1.835h4.58v1.148H25.41
		V9.834h4.482V7.999c-1.724-0.309-2.928-1.64-2.928-3.235c0-0.743,0.28-1.611,0.826-2.158h-1.905V1.457h4.021V0h1.513v1.457h4.104
		v1.148H33.479z M30.648,2.648c-1.513,0-2.157,1.078-2.157,2.115c0,1.176,0.911,2.185,2.157,2.185c1.247,0,2.157-1.009,2.157-2.185
		C32.806,3.727,32.176,2.648,30.648,2.648z"/>
	<path fill="#2C445A" d="M37.1,7.635V6.473h10.436v1.162H37.1z M38.038,5.057V0.645h1.555v3.208h7.158v1.204H38.038z M38.192,12.803
		V8.756h1.555v2.898h7.06v1.148H38.192z"/>
	<path fill="#2C445A" d="M58.087,6.542v2.087h0.868c0.729,0,1.415-0.111,2.172-0.363V0.211h1.498v4.622h1.163V0.211h1.499v12.578
		h-1.499V5.996h-1.163v6.793h-1.498V9.386c-0.785,0.267-1.261,0.42-2.172,0.42h-4.847V8.629h2.494V6.557
		c-1.261-0.322-2.228-1.443-2.228-2.887c0-1.68,1.345-2.955,2.955-2.955c1.625,0,2.956,1.275,2.956,2.955
		C60.286,5.1,59.334,6.22,58.087,6.542z M57.33,1.906c-0.798,0-1.456,0.728-1.456,1.764c0,1.037,0.658,1.766,1.456,1.766
		c0.813,0,1.457-0.729,1.457-1.766C58.787,2.521,58.073,1.906,57.33,1.906z"/>
	<path fill="#2C445A" d="M69.552,10.197v1.906h-1.975v-1.906H69.552z"/>
</g>
</svg>
