<?xml version="1.0" encoding="utf-8"?>
<!-- Generator: Adobe Illustrator 15.0.0, SVG Export Plug-In . SVG Version: 6.00 Build 0)  -->
<!DOCTYPE svg PUBLIC "-//W3C//DTD SVG 1.0//EN" "http://www.w3.org/TR/2001/REC-SVG-20010904/DTD/svg10.dtd">
<svg version="1.0" id="Layer_1" xmlns="http://www.w3.org/2000/svg" xmlns:xlink="http://www.w3.org/1999/xlink" x="0px" y="0px"
	 width="100px" height="43px" viewBox="0 0 100 43" enable-background="new 0 0 100 43" xml:space="preserve">
<g>
	<g>
		<polygon fill="#D22238" points="9.8,15.575 0,16.438 0,0 9.8,0 		"/>
	</g>
	<g>
		<polygon fill="#EF4129" points="19.06,27.811 12.562,31.975 12.562,15.535 19.06,15.535 		"/>
	</g>
	<g>
		<polygon fill="#98999E" points="29.442,26.986 23.769,31.975 23.769,15.535 29.442,15.535 		"/>
	</g>
	<g>
		<polygon fill="#5B5A5C" points="4.848,38.011 0,43 0,26.561 4.848,26.561 		"/>
	</g>
	<g>
		<polygon fill="#F15A22" points="24.261,38.011 21.061,43 21.061,26.561 24.261,26.561 		"/>
	</g>
	<g>
		<path fill="#F15A29" d="M39.832,11.379v1.797h-0.467v-1.797h-2.536v-0.392h5.551v0.392H39.832z M37.598,10.37V7.846h4.019v0.391
			h-3.54v0.669h3.52v0.386h-3.52v0.687h3.584v0.392H37.598z"/>
		<path fill="#F15A29" d="M47.02,11.038V9.895h-1.439v0.549h-2.636V8.028h2.636v0.453h1.439V7.625h0.466v3.413H47.02z M45.115,8.419
			h-1.702v1.635h1.702V8.419z M45.486,13.282c-1.342,0-2.074-0.454-2.074-1.091c0-0.638,0.732-1.098,2.074-1.098
			c1.344,0,2.07,0.46,2.07,1.098C47.556,12.828,46.83,13.282,45.486,13.282z M45.486,11.485c-0.941,0-1.583,0.253-1.583,0.706
			c0,0.436,0.642,0.707,1.583,0.707c0.92,0,1.577-0.265,1.577-0.707C47.063,11.744,46.407,11.485,45.486,11.485z M47.02,8.861
			h-1.439v0.655h1.439V8.861z"/>
		<path fill="#F15A29" d="M51.583,12.065c-0.246-0.151-0.643-0.41-0.976-0.807c-0.34-0.41-0.538-0.825-0.613-1.066
			c-0.058,0.234-0.247,0.649-0.612,1.116c-0.283,0.36-0.676,0.688-0.972,0.876l-0.378-0.315c0.416-0.245,0.901-0.675,1.223-1.161
			c0.335-0.51,0.492-1.179,0.492-1.792V7.953h0.486v0.964c0,0.613,0.138,1.232,0.529,1.786c0.329,0.479,0.813,0.84,1.15,1.021
			L51.583,12.065z M52.92,9.877h0.902v0.411H52.92v2.888h-0.474V7.625h0.474V9.877z"/>
		<path fill="#F15A29" d="M55.951,12.256l-1.994,0.005v-0.396h1.786v-0.663c-0.708-0.063-1.167-0.436-1.167-0.889
			c0-0.493,0.574-0.903,1.4-0.903s1.426,0.424,1.426,0.909c0,0.435-0.479,0.814-1.174,0.877v0.655
			c0.531-0.005,1.344-0.056,1.83-0.126v0.398C57.584,12.173,56.765,12.235,55.951,12.256z M54.28,9.101V8.71h3.362v0.391H54.28z
			 M55.977,9.783c-0.549,0-0.946,0.233-0.946,0.53c0,0.303,0.397,0.518,0.952,0.518c0.566,0,0.954-0.215,0.954-0.512
			C56.936,10.016,56.544,9.783,55.977,9.783z M55.055,8.224V7.832h1.8v0.392H55.055z M58.323,13.176V7.625h0.472v5.552H58.323z"/>
		<path fill="#F15A29" d="M59.398,10.659v-0.38h5.55v0.38H59.398z M60.155,9.814V8.634h3.482V8.188h-3.482V7.813h3.979v1.18h-3.481
			v0.448h3.634v0.374H60.155z M64.16,12.292h-3.512v0.448h3.67v0.373h-4.164v-1.18h3.513v-0.447h-3.513v-0.371h4.005V12.292z"/>
		<path fill="#F15A29" d="M69.404,11.145v1.904h-0.473v-1.897h-1.603v-0.399l2.094-0.005c0.65-0.013,1.748-0.095,2.069-0.152v0.385
			C71.039,11.057,70.017,11.145,69.404,11.145z M69.232,10.149c-0.875,0-1.468-0.563-1.468-1.194c0-0.63,0.592-1.199,1.468-1.199
			c0.879,0,1.472,0.569,1.472,1.199C70.704,9.586,70.111,10.149,69.232,10.149z M68.232,8.955c0,0.404,0.346,0.802,1,0.802
			c0.664,0,1.004-0.397,1.004-0.802c0-0.403-0.34-0.814-1.004-0.814C68.578,8.141,68.232,8.552,68.232,8.955z M71.713,13.176V7.625
			h0.474v5.552H71.713z"/>
		<path fill="#F15A29" d="M72.966,8.893V8.526h3.486v0.366H72.966z M73.236,10.193c0-0.524,0.567-0.959,1.476-0.959
			c0.92,0,1.47,0.436,1.47,0.959c0,0.504-0.553,0.952-1.475,0.952C73.798,11.145,73.236,10.697,73.236,10.193z M74.712,9.58
			c-0.63,0-0.964,0.283-0.964,0.606c0,0.315,0.334,0.592,0.964,0.592c0.632,0,0.964-0.271,0.964-0.592
			C75.676,9.863,75.344,9.58,74.712,9.58z M73.773,8.028V7.662h1.836v0.366H73.773z M73.829,13.049v-1.558h0.474v1.173h3.456v0.384
			H73.829z M77.583,9.329h0.833v0.397h-0.833v2.037h-0.468V7.625h0.468V9.329z"/>
	</g>
	<g>
		<path fill="none" d="M62.96,24.707c-0.873,0-1.45,0.701-1.45,1.523c0,0.812,0.541,1.524,1.45,1.524
			c0.897,0,1.449-0.713,1.449-1.524C64.409,25.407,63.857,24.707,62.96,24.707z"/>
		<path fill="none" d="M42.106,24.841c-0.873,0-1.427,0.64-1.427,1.463c0,0.811,0.531,1.462,1.427,1.462
			c0.909,0,1.437-0.652,1.437-1.462C43.543,25.48,43.016,24.841,42.106,24.841z"/>
		<path fill="none" d="M53.718,19.742c-0.762-0.012-1.593-0.049-3.509,0c0,0.382-0.016,1.021,0.02,1.45
			c0,0.308,0.098,0.32,0.369,0.32c0.086,0,1.622,0.122,3.059-0.023C53.73,20.898,53.718,20.161,53.718,19.742z"/>
		<path fill="#262626" d="M41.43,22.975c0.232,0.345,0.75,0.221,0.75-0.123v-0.479c0-0.466-0.727-0.911-2.188-1.82
			c0.516-0.602,0.994-1.374,1.229-1.805c0.134-0.331,0.074-0.527-0.186-0.823c-0.146-0.159-0.274-0.216-0.436-0.229
			c-0.194,0-0.324,0.071-0.619,0.071l-1.722,0.037c-0.847-0.037-0.662-0.037-1.314-0.111c-0.468-0.062-0.761,0.282-0.296,0.565
			c0.665,0.405,0.983,0.381,1.082,0.43c0.173-0.073,0.282-0.171,0.406-0.185c0.529-0.047,0.884-0.038,1.5-0.038
			c0.134,0,0.256,0.149,0.195,0.272c-0.934,1.879-2.175,3.183-3.895,4.176c-0.209,0.111-0.307,0.272-0.183,0.454
			c0.11,0.125,0.393,0.075,0.588-0.011c1.229-0.516,2.556-1.535,3.294-2.408C40.644,21.807,40.828,22.188,41.43,22.975z"/>
		<path fill="#262626" d="M44.563,16.793c-0.725-0.183-1.414-0.195-1.451-0.195c-0.515-0.047-0.65,0.395-0.171,0.504
			c0.688,0.16,0.677,0.492,0.677,0.823v1.806h-0.395c-0.774-0.023-0.958-0.011-1.66-0.086c-0.467-0.062-0.6,0.307-0.208,0.541
			c0.69,0.417,1.13,0.417,1.155,0.417c0.014-0.012,0.272-0.148,0.419-0.172c0.283-0.023,0.503-0.036,0.689-0.036v2.863
			c0,0.257,0.098,0.369,0.208,0.441c0.122,0.1,0.491,0.063,0.602-0.023c0.147-0.087,0.27-0.333,0.27-0.739v-4.988
			c0-0.002,0-0.006,0-0.009v-1.117C44.644,16.812,44.59,16.801,44.563,16.793z"/>
		<path fill="#262626" d="M42.106,24.154c-1.315,0-2.594,0.823-2.594,2.15c0,1.278,1.291,2.138,2.594,2.138
			c1.326,0,2.591-0.836,2.591-2.138C44.698,24.978,43.42,24.154,42.106,24.154z M42.106,27.767c-0.896,0-1.427-0.652-1.427-1.462
			c0-0.824,0.554-1.463,1.427-1.463c0.909,0,1.437,0.64,1.437,1.463C43.543,27.115,43.016,27.767,42.106,27.767z"/>
		<path fill="#262626" d="M68.157,22.163c-0.503-0.22-1.301-0.256-1.339-0.256c-0.011,0.012-0.319,0.27-0.649,0.282
			C66.08,22.2,64.875,22.2,63.352,22.2v-1.364c0-0.011,0.001-0.026,0.001-0.039v-1.08c-0.053-0.011-0.11-0.025-0.137-0.034
			c-0.736-0.147-1.45-0.136-1.487-0.136c-0.492-0.012-0.602,0.441-0.171,0.516c0.626,0.099,0.688,0.443,0.688,0.773V22.2
			c-1.044-0.011-2.235-0.011-2.383-0.023c-0.786-0.038-1.055-0.05-1.732-0.136c-0.503-0.074-0.799,0.27-0.319,0.565
			c0.713,0.467,1.327,0.504,1.363,0.504c0.012-0.014,0.283-0.222,0.553-0.233c3.599-0.086,6.453-0.038,7.251,0.036
			c0.454,0.037,0.724,0.037,1.056,0C68.403,22.877,68.477,22.311,68.157,22.163z"/>
		<path fill="#262626" d="M59.838,17.704c0.576,0.367,1.079,0.454,1.104,0.454c0.011-0.011,0.27-0.146,0.454-0.172
			c1.487-0.122,3.419-0.024,3.518-0.024c0.221,0,0.269,0.11,0.233,0.332c-0.099,0.627-0.271,1.584-0.614,2.506
			c-0.112,0.308,0.515,0.528,0.809,0.073c0.443-0.688,0.861-2.039,1.021-2.715c0.086-0.43-0.012-0.564-0.259-0.823
			c-0.158-0.172-0.625-0.259-0.65-0.259c-0.012,0.014-0.283,0.16-0.43,0.16c-0.701,0.014-3.026,0.05-3.445,0.025
			c-0.92-0.061-0.724-0.049-1.413-0.137C59.664,17.029,59.332,17.384,59.838,17.704z"/>
		<path fill="#262626" d="M62.96,24.02c-1.313,0-2.606,0.834-2.606,2.21c0,1.327,1.302,2.2,2.606,2.2c1.327,0,2.605-0.861,2.605-2.2
			C65.565,24.866,64.276,24.02,62.96,24.02z M62.96,27.754c-0.909,0-1.45-0.713-1.45-1.524c0-0.823,0.578-1.523,1.45-1.523
			c0.897,0,1.449,0.701,1.449,1.523C64.409,27.042,63.857,27.754,62.96,27.754z"/>
		<path fill="#262626" d="M73.135,18.158c-0.012,0-0.27,0.123-0.416,0.135h-1.354c-0.835-0.049-0.674-0.049-1.313-0.122
			c-0.466-0.075-0.725,0.293-0.294,0.576c0.663,0.407,1.032,0.407,1.055,0.407c0.014-0.014,0.283-0.149,0.396-0.16
			c0.788-0.087,0.97-0.049,1.253-0.023c0.134,0,0.208,0.17,0.172,0.307c-0.528,1.928-2.138,3.87-3.257,4.472
			c-0.182,0.099-0.294,0.221-0.159,0.393c0.085,0.099,0.355,0.085,0.589-0.024c1.461-0.7,3.366-2.803,4.092-4.805
			c0.135-0.355,0.099-0.565-0.16-0.858C73.528,18.269,73.159,18.158,73.135,18.158z"/>
		<path fill="#262626" d="M78.125,16.793c-0.714-0.183-1.365-0.195-1.402-0.195c-0.424-0.031-0.566,0.301-0.287,0.453
			c0,0,0.095,0.044,0.128,0.051c0.677,0.172,0.64,0.492,0.64,0.823v2.778c-0.345,0.023-0.799,0.035-1.253,0.01V20.33l0,0v-3.137
			c-0.056-0.012-0.111-0.023-0.137-0.029c-0.711-0.185-1.364-0.195-1.399-0.195c-0.479-0.038-0.603,0.392-0.161,0.503
			c0.675,0.172,0.64,0.491,0.64,0.823v7.728c0,0.258,0.073,0.417,0.172,0.492c0.124,0.099,0.541,0.062,0.639-0.023
			c0.147-0.088,0.247-0.444,0.247-0.85v-4.238c0.454-0.012,0.908,0,1.253,0v4.865c0,0.258,0.073,0.417,0.171,0.491
			c0.124,0.099,0.541,0.063,0.64-0.024c0.146-0.086,0.246-0.442,0.246-0.848v-7.937c0-0.051,0.002-0.11,0.008-0.171v-0.952
			C78.21,16.813,78.152,16.801,78.125,16.793z"/>
		<path fill="#262626" d="M84.601,23.16c0.136,0.281,0.724,0.244,0.724-0.137v-0.64c0-0.44-0.6-0.933-2.063-2.111
			c0.344-0.579,0.567-1.205,0.763-1.855c0.099-0.331-0.014-0.614-0.369-0.701c-0.502-0.122-0.993-0.135-1.339-0.16
			c-0.528-0.049-0.651,0.393-0.185,0.504c0.712,0.172,0.604,0.404,0.541,0.65c-0.172,1.082-1.326,3.318-2.604,4.287
			c-0.211,0.162-0.248,0.284-0.137,0.406c0.123,0.135,0.466,0.05,0.664-0.085c0.799-0.517,1.793-1.525,2.396-2.593
			C83.803,21.586,84.146,22.25,84.601,23.16z"/>
		<path fill="#262626" d="M89.184,16.793c-0.712-0.183-1.363-0.195-1.4-0.195c-0.479-0.035-0.604,0.395-0.158,0.504
			c0.675,0.172,0.637,0.492,0.637,0.823v6.905c0,0.258,0.099,0.368,0.197,0.443c0.123,0.098,0.492,0.061,0.59-0.026
			c0.148-0.085,0.269-0.332,0.269-0.737v-6.561c0-0.002,0.001-0.006,0.001-0.009v-1.117C89.266,16.812,89.21,16.801,89.184,16.793z"
			/>
		<path fill="#262626" d="M84.32,20.136c0.648,0.407,1.104,0.407,1.128,0.407c0.012-0.015,0.234-0.135,0.394-0.161
			c0.148-0.012,0.271-0.023,0.38-0.023v4.226c0,0.256,0.101,0.367,0.198,0.442c0.123,0.099,0.49,0.061,0.59-0.024
			c0.144-0.085,0.266-0.326,0.268-0.723v-7.087c-0.052-0.012-0.108-0.023-0.133-0.029c-0.713-0.185-1.364-0.195-1.401-0.195
			c-0.479-0.038-0.601,0.392-0.158,0.503c0.675,0.172,0.637,0.491,0.637,0.823v1.389h-0.109c-0.75-0.012-0.908-0.012-1.586-0.087
			C84.061,19.535,83.938,19.89,84.32,20.136z"/>
		<path fill="#262626" d="M99.863,16.793c-0.724-0.183-1.414-0.195-1.45-0.195c-0.517-0.047-0.651,0.395-0.172,0.504
			c0.688,0.16,0.675,0.492,0.675,0.823v2.642h-0.355c-0.762-0.023-0.945-0.014-1.646-0.087c-0.489-0.072-0.614,0.296-0.207,0.529
			c0.676,0.405,1.129,0.405,1.153,0.405c0.012-0.011,0.259-0.122,0.406-0.148c0.233-0.023,0.454-0.023,0.649-0.035v5.024
			c0,0.259,0.099,0.418,0.21,0.492c0.122,0.099,0.491,0.061,0.603-0.025c0.146-0.084,0.271-0.442,0.271-0.847v-7.924
			c0-0.011,0.001-0.025,0.001-0.038v-1.087C99.943,16.812,99.889,16.801,99.863,16.793z"/>
		<path fill="#262626" d="M97.516,22.839c-1.068,0.257-1.744,0.407-3.292,0.492c-0.332,0.024-0.626-0.024-0.626-0.516
			c-0.037-0.431-0.062-0.934-0.062-1.438c0.454,0,1.104,0,1.646,0.037c0.418,0.024,0.688,0.024,0.996,0
			c0.345-0.037,0.416-0.602,0.098-0.71c-0.479-0.211-1.205-0.248-1.241-0.248c-0.014,0.013-0.294,0.223-0.602,0.258
			c-0.355,0.038-0.677,0.038-0.896,0.025c0.011-0.812,0.037-1.511,0.062-1.733c0.393-0.011,1.535-0.023,2.309,0.026
			c0.43,0.026,0.688,0.026,1.021,0c0.355-0.037,0.441-0.576,0.098-0.725c-0.503-0.22-1.242-0.234-1.278-0.234
			c-0.013,0.015-0.283,0.234-0.601,0.259c-1.107,0.099-2.987-0.061-3.087-0.073c-0.44,0-0.478,0.442-0.036,0.552
			c0.332,0.063,0.394,0.196,0.394,0.652c0.013,0.098,0.147,1.893,0,3.613c0,0.958,0.909,1.203,1.695,1.129
			c1.536-0.148,2.36-0.404,3.478-0.848C97.997,23.196,97.788,22.778,97.516,22.839z"/>
	</g>
	<g>
		<path fill="#262626" d="M89.946,27.324c-0.479-0.209-1.29-0.247-1.341-0.247c-0.011,0.012-0.208,0.234-0.514,0.247
			c-1.168,0.074-2.619-0.012-2.693-0.012c-0.194,0-0.318-0.012-0.318-0.282c0-0.459-0.011-0.852-0.006-1.184V24.69
			c-0.066-0.007-0.201-0.015-0.24-0.021c-0.553-0.099-1.4-0.136-1.449-0.136c-0.516-0.024-0.591,0.417-0.209,0.492
			c0.726,0.146,0.701,0.318,0.701,0.701c0.011,0.037,0.01,0.624,0,1.414c-0.015,0.894,0.614,0.934,1.251,0.934l3.7-0.012
			c0.43,0.012,0.688,0.023,1.007-0.015C90.204,28.011,90.277,27.473,89.946,27.324z"/>
	</g>
	<g>
		<path fill="none" d="M53.718,19.742c-0.762-0.012-1.593-0.049-3.509,0c0,0.382-0.016,1.021,0.02,1.45
			c0,0.308,0.098,0.32,0.369,0.32c0.086,0,1.622,0.122,3.059-0.023C53.73,20.898,53.718,20.161,53.718,19.742z"/>
		<path fill="#262626" d="M57.097,24.044c-0.503-0.21-1.327-0.259-1.377-0.259c-0.011,0.014-0.282,0.27-0.613,0.285
			c-0.076,0.011-1.303,0.011-2.656,0.011v-1.874c0.738,0,1.577-0.007,2.354,0.016V17.39c-0.034-0.007-0.068-0.013-0.092-0.017
			c-0.651-0.149-1.401-0.186-1.438-0.186c-0.491-0.063-0.553,0.382-0.159,0.492c0.59,0.147,0.565,0.406,0.565,0.699l0.011,0.652
			c-0.798,0.026-1.578,0.061-3.483,0.011c0-0.054,0.002-0.112,0.005-0.169v-1.245c-0.047-0.008-0.12-0.017-0.145-0.021
			c-0.652-0.136-1.389-0.172-1.426-0.172c-0.502-0.05-0.564,0.405-0.159,0.491c0.602,0.146,0.554,0.405,0.554,0.688
			c0,0.073,0.109,1.487,0,2.592c-0.1,0.934,0.515,1.021,1.288,1.021l1.008-0.005v1.86c-1.24,0-2.359-0.011-2.531-0.026
			c-0.786-0.036-1.056-0.047-1.733-0.135c-0.502-0.072-0.797,0.272-0.318,0.578c0.713,0.468,1.339,0.492,1.375,0.492
			c0.013-0.012,0.27-0.209,0.541-0.221c3.599-0.086,6.449-0.037,7.249,0.036c0.454,0.037,0.725,0.037,1.056,0
			C57.343,24.769,57.417,24.192,57.097,24.044z M50.597,21.513c-0.271,0-0.369-0.013-0.369-0.32c-0.036-0.43-0.02-1.068-0.02-1.45
			c1.916-0.049,2.748-0.012,3.509,0c0,0.419,0.012,1.156-0.062,1.747C52.291,21.557,50.684,21.513,50.597,21.513z"/>
	</g>
</g>
</svg>
