<?xml version="1.0" encoding="utf-8"?>
<!-- Generator: Adobe Illustrator 15.0.0, SVG Export Plug-In . SVG Version: 6.00 Build 0)  -->
<!DOCTYPE svg PUBLIC "-//W3C//DTD SVG 1.0//EN" "http://www.w3.org/TR/2001/REC-SVG-20010904/DTD/svg10.dtd">
<svg version="1.0" id="Layer_1" xmlns="http://www.w3.org/2000/svg" xmlns:xlink="http://www.w3.org/1999/xlink" x="0px" y="0px"
	 width="420px" height="78px" viewBox="0 0 420 78" enable-background="new 0 0 420 78" xml:space="preserve">
<g>
	<path fill="#FFFFFF" d="M38.637,55.715c-7.102-2.705-13.441-9.3-17.078-19.952C18.093,46.5,11.414,53.264,4.65,55.8L0,51.317
		c15.387-9.045,16.993-26.63,17.077-45.737h9.132c0.085,19.107,1.605,36.692,17.078,45.737L38.637,55.715z M45.908,77.273V31.535
		H33.057v-7.017h12.852V1.268h9.215v76.006H45.908z M61.379,77.273V1.268h9.132v76.006H61.379z"/>
	<path fill="#FFFFFF" d="M133.662,47.515v-1.945h-14.965v-6.087h15.049v-5.158c-2.959,1.607-8.285,4.059-15.725,4.059h-13.527v8.709
		h-9.299v-8.709H79.808v-7.017h38.384c7.186,0,13.441-2.79,15.555-3.89V1.268h9.385v46.247H133.662z M102.127,29.252
		c-10.821,0-19.445-5.496-19.445-14.033c0-7.61,7.439-13.866,19.615-13.866c12.174,0,19.529,6.256,19.529,13.866
		C121.826,23.756,112.864,29.252,102.127,29.252z M91.644,77.189V59.773h42.188v-3.551H91.644v-7.018h51.572v17.501h-42.188v3.635
		h43.795v6.849H91.644z M102.297,8.031c-6.342,0-10.568,3.129-10.568,7.188c0,4.143,4.227,7.186,10.568,7.186
		c6.34,0,10.567-3.043,10.567-7.186C112.864,11.16,108.637,8.031,102.297,8.031z"/>
	<path fill="#FFFFFF" d="M202.14,15.726c3.382,3.298,5.073,8.538,5.073,13.019c0,9.639-7.271,17.671-17.586,19.531v11.075h27.645
		v6.933h-63.829v-6.933h27.054V48.275c-10.399-1.86-17.67-9.893-17.67-19.531c0-4.48,1.69-9.721,4.988-13.019h-11.499V8.793h24.265
		V0h9.131v8.793h24.771v6.933H202.14z M185.061,15.979c-9.13,0-13.02,6.51-13.02,12.766c0,7.104,5.496,13.19,13.02,13.19
		c7.525,0,13.021-6.087,13.021-13.19C198.081,22.488,194.276,15.979,185.061,15.979z"/>
	<path fill="#FFFFFF" d="M224.033,46.077V39.06h62.986v7.018H224.033z M229.699,30.521V3.889h9.383v19.36h43.202v7.272H229.699z
		 M230.629,77.273V52.841h9.384v17.5h42.61v6.933H230.629z"/>
	<g>
		<path fill="#FDF496" d="M350.762,39.482V52.08h5.241c4.397,0,8.538-0.677,13.104-2.199V1.268h9.046v27.9h7.017v-27.9h9.047v75.922
			h-9.047V36.186h-7.017v41.004h-9.046V56.645c-4.735,1.606-7.608,2.536-13.104,2.536H326.75V52.08h15.049V39.566
			c-7.607-1.944-13.442-8.707-13.442-17.416c0-10.146,8.116-17.838,17.839-17.838c9.808,0,17.84,7.692,17.84,17.838
			C364.035,30.774,358.285,37.537,350.762,39.482z M346.195,11.498c-4.818,0-8.793,4.396-8.793,10.652
			c0,6.256,3.975,10.653,8.793,10.653c4.904,0,8.794-4.397,8.794-10.653C354.989,15.219,350.676,11.498,346.195,11.498z"/>
		<path fill="#FDF496" d="M420,61.548v11.499h-11.922V61.548H420z"/>
	</g>
</g>
</svg>
